:SAMPLES-PER-SECOND 24
:FULLY-SPECIFIED
:DEGREES
497
root  -4.65178 36.3051 12.4563 123.795 81.7381 127.979
RightUpLeg  -8.08781 -18.0144 -35.4979
RightLeg  25.2744 -7.60515 -4.15839
RightFoot  -1.55675 -0.104145 1.27486
RightToes  -1.46203e-006 3.27826e-006 1.63871e-007
Spine  5.62375 2.58609 3.05838
Spine1  15.4441 3.43313 -3.16687
HEad  -30.9839 53.8991 -40.0379
LeftShoulder1  2.46951 -3.90703 -27.233
LeftArm  27.5728 -1.78464 -31.5118
LeftForeArm  14.0625 -50.3753 -13.027
LeftHand  -0.478219 0.454227 10.796
RightShoulder  4.00634 6.33435 34.8096
RightArm  3.78781 -13.6647 34.3253
RightForeArm  110.051 80.2045 99.2907
RightHand  -0.0837823 -2.46822 -2.72637
LeftUpLeg  -13.7662 14.9271 6.49551
LeftLeg  41.7947 -1.74878 -1.43031
LeftFoot  -17.4151 -0.435012 -10.1548
LeftToes  1.24767e-006 1.47042e-008 1.32732e-009
498
root  -5.03215 35.047 14.0116 141.978 80.5452 146.335
RightUpLeg  -8.77518 -18.3057 -37.8495
RightLeg  30.3848 1.38294 0.690253
RightFoot  -5.22895 -0.685129 12.5431
RightToes  -1.46203e-006 3.27826e-006 1.63871e-007
Spine  8.45304 2.33906 4.30363
Spine1  14.669 4.24073 -6.35663
HEad  -33.9642 50.3704 -40.2083
LeftShoulder1  2.52525 -3.89212 -28.0783
LeftArm  34.7494 -11.7617 -37.3166
LeftForeArm  -9.38125 -26.3484 -5.94647
LeftHand  -0.392908 3.36293 23.0546
RightShoulder  4.22746 6.49803 36.3496
RightArm  -0.365588 -11.4857 37.8792
RightForeArm  80.8967 79.6398 64.2379
RightHand  0.0382844 -7.56724 -3.60983
LeftUpLeg  -19.562 11.8115 10.3816
LeftLeg  49.5415 -3.6729 -4.16156
LeftFoot  -16.7748 -0.544477 -13.5967
LeftToes  1.24767e-006 1.47042e-008 1.32732e-009
499
root  -5.44788 34.3796 15.7943 131.127 81.2506 135.359
RightUpLeg  -15.7555 -22.1405 -37.0114
RightLeg  41.1642 6.17771 5.48897
RightFoot  -8.94906 -0.326376 12.6579
RightToes  -1.46203e-006 3.27826e-006 1.63871e-007
Spine  11.5727 3.15601 5.23032
Spine1  13.754 6.59524 -10.9814
HEad  -36.9943 48.2236 -42.2568
LeftShoulder1  2.33988 -3.71844 -26.2717
LeftArm  6.33376 -13.2163 -42.2859
LeftForeArm  -4.04956 -9.34794 -13.4952
LeftHand  1.11614 8.24635 42.4113
RightShoulder  3.92873 6.45 33.5855
RightArm  1.87284 -10.5422 40.5911
RightForeArm  77.9144 79.5897 66.9889
RightHand  0.172506 -10.5021 -5.00316
LeftUpLeg  -20.4883 12.2675 12.6662
LeftLeg  49.8957 -3.02699 -3.3738
LeftFoot  -16.4953 -0.571577 -14.8162
LeftToes  1.24767e-006 1.47042e-008 1.32732e-009
500
root  -5.69415 34.313 17.8461 119.862 81.2549 122.684
RightUpLeg  -23.1425 -24.8257 -32.8949
RightLeg  49.1619 4.92271 5.73783
RightFoot  -12.2757 -0.0462498 3.98024
RightToes  -1.46203e-006 3.27826e-006 1.63871e-007
Spine  12.1287 3.38834 4.95454
Spine1  13.9993 7.46322 -12.2413
HEad  -41.5164 47.0236 -48.6211
LeftShoulder1  2.45422 -3.88213 -27.1262
LeftArm  13.777 -7.83078 -40.2726
LeftForeArm  -21.3917 -12.9436 -12.8936
LeftHand  0.814343 7.83364 37.8414
RightShoulder  3.7287 6.36486 31.8985
RightArm  8.07499 -6.01231 37.9003
RightForeArm  101.078 79.6258 101.979
RightHand  0.0211431 -9.19952 -2.03952
LeftUpLeg  -19.8053 13.1294 14.5684
LeftLeg  45.098 -3.0501 -2.79385
LeftFoot  -14.7213 -0.442615 -18.2323
LeftToes  1.24767e-006 1.47042e-008 1.32732e-009
501
root  -5.62424 34.9421 20.3306 132.797 79.7593 134.424
RightUpLeg  -23.558 -26.7457 -28.2815
RightLeg  50.1231 3.46497 4.1074
RightFoot  -14.5784 -0.0256954 2.27058
RightToes  -1.46203e-006 3.27826e-006 1.63871e-007
Spine  11.6606 2.39142 5.49714
Spine1  14.1468 6.47352 -11.6392
HEad  -42.1926 46.2834 -50.6625
LeftShoulder1  2.61961 -4.05726 -28.5953
LeftArm  31.0979 0.0323473 -35.3918
LeftForeArm  -26.5426 -21.5293 -7.48435
LeftHand  -0.246757 3.13936 15.9092
RightShoulder  3.73105 6.27751 32.2623
RightArm  11.781 0.672357 34.6402
RightForeArm  118.76 76.5484 128.927
RightHand  -0.0975023 -8.29531 1.90538
LeftUpLeg  -16.9259 12.484 17.7696
LeftLeg  32.9611 -5.48379 -3.34079
LeftFoot  -4.79706 1.3324 -21.99
LeftToes  1.24767e-006 1.47042e-008 1.32732e-009
